<svg xmlns="http://www.w3.org/2000/svg" viewBox="0 0 24 24" id="medical-care"><g data-name="Layer 2"><circle cx="12" cy="12" r="10.75" fill="#13e4ea"></circle><path fill="#e4edfb" d="M16.5 9.25h-1.75V7.5A1.752 1.752 0 0 0 13 5.75h-2A1.752 1.752 0 0 0 9.25 7.5v1.75H7.5A1.752 1.752 0 0 0 5.75 11v2a1.752 1.752 0 0 0 1.75 1.75h1.75v1.75A1.752 1.752 0 0 0 11 18.25h2a1.752 1.752 0 0 0 1.75-1.75v-1.75h1.75A1.752 1.752 0 0 0 18.25 13v-2a1.752 1.752 0 0 0-1.75-1.75Z"></path><path fill="#007da1" d="M12 22.75a10.738 10.738 0 1 1 3.225-.492.751.751 0 0 1-.45-1.432A9.256 9.256 0 1 0 12 21.25a.75.75 0 0 1 0 1.5Z"></path><path fill="#007da1" d="M13 18.25h-2a1.752 1.752 0 0 1-1.75-1.75v-1.75H7.5A1.752 1.752 0 0 1 5.75 13v-2A1.752 1.752 0 0 1 7.5 9.25h1.75V7.5A1.752 1.752 0 0 1 11 5.75h2a1.752 1.752 0 0 1 1.75 1.75v1.75h1.75A1.752 1.752 0 0 1 18.25 11v2a1.752 1.752 0 0 1-1.75 1.75h-1.75v1.75A1.752 1.752 0 0 1 13 18.25Zm-5.5-7.5a.25.25 0 0 0-.25.25v2a.25.25 0 0 0 .25.25H10a.75.75 0 0 1 .75.75v2.5a.25.25 0 0 0 .25.25h2a.25.25 0 0 0 .25-.25V14a.75.75 0 0 1 .75-.75h2.5a.25.25 0 0 0 .25-.25v-2a.25.25 0 0 0-.25-.25H14a.75.75 0 0 1-.75-.75V7.5a.25.25 0 0 0-.25-.25h-2a.25.25 0 0 0-.25.25V10a.75.75 0 0 1-.75.75Z"></path></g></svg>