<?xml version="1.0" encoding="UTF-8"?>
<svg xmlns="http://www.w3.org/2000/svg" xmlns:xlink="http://www.w3.org/1999/xlink" width="50px" height="50px" viewBox="0 0 50 50" version="1.1">
<g id="surface1">
<path style=" stroke:none;fill-rule:nonzero;fill:rgb(7.45098%,89.411765%,91.764706%);fill-opacity:1;" d="M 47.394531 25 C 47.394531 37.367188 37.367188 47.394531 25 47.394531 C 12.632812 47.394531 2.605469 37.367188 2.605469 25 C 2.605469 12.632812 12.632812 2.605469 25 2.605469 C 37.367188 2.605469 47.394531 12.632812 47.394531 25 Z M 47.394531 25 "/>
<path style=" stroke:none;fill-rule:nonzero;fill:rgb(89.411765%,92.941176%,98.431373%);fill-opacity:1;" d="M 34.375 19.269531 L 30.730469 19.269531 L 30.730469 15.625 C 30.726562 13.613281 29.097656 11.980469 27.082031 11.980469 L 22.917969 11.980469 C 20.902344 11.980469 19.273438 13.613281 19.269531 15.625 L 19.269531 19.269531 L 15.625 19.269531 C 13.613281 19.273438 11.980469 20.902344 11.980469 22.917969 L 11.980469 27.082031 C 11.980469 29.097656 13.613281 30.726562 15.625 30.730469 L 19.269531 30.730469 L 19.269531 34.375 C 19.273438 36.386719 20.902344 38.019531 22.917969 38.019531 L 27.082031 38.019531 C 29.097656 38.019531 30.726562 36.386719 30.730469 34.375 L 30.730469 30.730469 L 34.375 30.730469 C 36.386719 30.726562 38.019531 29.097656 38.019531 27.082031 L 38.019531 22.917969 C 38.019531 20.902344 36.386719 19.273438 34.375 19.269531 Z M 34.375 19.269531 "/>
<path style=" stroke:none;fill-rule:nonzero;fill:rgb(0%,49.019608%,63.137255%);fill-opacity:1;" d="M 25 47.394531 C 13.304688 47.382812 3.59375 38.367188 2.71875 26.703125 C 1.839844 15.042969 10.089844 4.671875 21.652344 2.910156 C 33.210938 1.144531 44.179688 8.585938 46.820312 19.976562 C 49.457031 31.367188 42.878906 42.871094 31.71875 46.371094 C 30.90625 46.59375 30.0625 46.136719 29.8125 45.332031 C 29.558594 44.527344 29.988281 43.667969 30.78125 43.386719 C 40.402344 40.371094 46.074219 30.453125 43.796875 20.632812 C 41.519531 10.8125 32.066406 4.402344 22.097656 5.925781 C 12.132812 7.449219 5.023438 16.390625 5.785156 26.441406 C 6.542969 36.496094 14.917969 44.265625 25 44.269531 C 25.863281 44.269531 26.5625 44.96875 26.5625 45.832031 C 26.5625 46.695312 25.863281 47.394531 25 47.394531 Z M 25 47.394531 "/>
<path style=" stroke:none;fill-rule:nonzero;fill:rgb(0%,49.019608%,63.137255%);fill-opacity:1;" d="M 27.082031 38.019531 L 22.917969 38.019531 C 20.902344 38.019531 19.273438 36.386719 19.269531 34.375 L 19.269531 30.730469 L 15.625 30.730469 C 13.613281 30.726562 11.980469 29.097656 11.980469 27.082031 L 11.980469 22.917969 C 11.980469 20.902344 13.613281 19.273438 15.625 19.269531 L 19.269531 19.269531 L 19.269531 15.625 C 19.273438 13.613281 20.902344 11.980469 22.917969 11.980469 L 27.082031 11.980469 C 29.097656 11.980469 30.726562 13.613281 30.730469 15.625 L 30.730469 19.269531 L 34.375 19.269531 C 36.386719 19.273438 38.019531 20.902344 38.019531 22.917969 L 38.019531 27.082031 C 38.019531 29.097656 36.386719 30.726562 34.375 30.730469 L 30.730469 30.730469 L 30.730469 34.375 C 30.726562 36.386719 29.097656 38.019531 27.082031 38.019531 Z M 15.625 22.394531 C 15.335938 22.394531 15.105469 22.628906 15.105469 22.917969 L 15.105469 27.082031 C 15.105469 27.371094 15.335938 27.605469 15.625 27.605469 L 20.832031 27.605469 C 21.695312 27.605469 22.394531 28.304688 22.394531 29.167969 L 22.394531 34.375 C 22.394531 34.664062 22.628906 34.894531 22.917969 34.894531 L 27.082031 34.894531 C 27.371094 34.894531 27.605469 34.664062 27.605469 34.375 L 27.605469 29.167969 C 27.605469 28.304688 28.304688 27.605469 29.167969 27.605469 L 34.375 27.605469 C 34.664062 27.605469 34.894531 27.371094 34.894531 27.082031 L 34.894531 22.917969 C 34.894531 22.628906 34.664062 22.394531 34.375 22.394531 L 29.167969 22.394531 C 28.304688 22.394531 27.605469 21.695312 27.605469 20.832031 L 27.605469 15.625 C 27.605469 15.335938 27.371094 15.105469 27.082031 15.105469 L 22.917969 15.105469 C 22.628906 15.105469 22.394531 15.335938 22.394531 15.625 L 22.394531 20.832031 C 22.394531 21.695312 21.695312 22.394531 20.832031 22.394531 Z M 15.625 22.394531 "/>
</g>
</svg>
